<?xml version="1.0" standalone="no"?><!DOCTYPE svg PUBLIC "-//W3C//DTD SVG 1.1//EN" "http://www.w3.org/Graphics/SVG/1.1/DTD/svg11.dtd"><svg t="1603606295624" class="icon" viewBox="0 0 1026 1024" version="1.1" xmlns="http://www.w3.org/2000/svg" p-id="4559" xmlns:xlink="http://www.w3.org/1999/xlink" width="200.390625" height="200"><defs><style type="text/css"></style></defs><path d="M102.838857 489.033143h356.571429a29.696 29.696 0 0 0 29.769143-29.696V102.838857A29.696 29.696 0 0 0 459.337143 73.142857H102.838857A29.696 29.696 0 0 0 73.142857 102.838857V459.337143c0 16.310857 13.312 29.696 29.696 29.696z m29.769143-356.425143h297.106286v296.96H132.534857v-296.96z m505.124571 59.392h356.571429a29.696 29.696 0 1 0 0-59.465143H637.732571a29.696 29.696 0 1 0 0 59.465143z m356.571429 326.875429H637.732571a29.696 29.696 0 1 0 0 59.392h356.571429a29.696 29.696 0 1 0 0-59.392z m0 386.267428H637.732571a29.696 29.696 0 1 0 0 59.465143h356.571429a29.696 29.696 0 1 0 0-59.465143zM317.44 586.093714a29.769143 29.769143 0 0 0-42.057143 0L81.846857 779.702857a29.696 29.696 0 0 0 0 41.984l193.536 193.462857a29.696 29.696 0 0 0 41.984 0l193.609143-193.609143a29.696 29.696 0 0 0 0-41.910857L317.44 586.093714z m-21.065143 366.153143l-151.405714-151.478857 151.478857-151.552 151.552 151.552-151.625143 151.405714z" fill="#99A9BF" p-id="4560"></path></svg>