<?xml version="1.0" standalone="no"?><!DOCTYPE svg PUBLIC "-//W3C//DTD SVG 1.1//EN" "http://www.w3.org/Graphics/SVG/1.1/DTD/svg11.dtd"><svg t="1603606342550" class="icon" viewBox="0 0 1024 1024" version="1.1" xmlns="http://www.w3.org/2000/svg" p-id="5448" xmlns:xlink="http://www.w3.org/1999/xlink" width="200" height="200"><defs><style type="text/css"></style></defs><path d="M430.08 174.08h163.84c25.6 0 46.08-10.24 46.08-35.84s-20.48-35.84-46.08-35.84H430.08c-25.6 0-46.08 10.24-46.08 35.84s20.48 35.84 46.08 35.84z m317.44 455.68H296.96c-25.6 0-35.84 10.24-35.84 30.72 0 20.48 10.24 30.72 35.84 30.72h450.56c25.6 0 35.84-10.24 35.84-30.72 0-20.48-10.24-30.72-35.84-30.72z m-51.2-399.36c-51.2 0-97.28 40.96-97.28 97.28 0 15.36 5.12 25.6 5.12 35.84L512 450.56l-76.8-61.44c-5.12-5.12-15.36-10.24-20.48-10.24s-15.36 5.12-20.48 15.36c-56.32 56.32-102.4 102.4-133.12 128-10.24 10.24-10.24 30.72 0 46.08 10.24 10.24 30.72 10.24 40.96 0 20.48-20.48 61.44-56.32 122.88-112.64l76.8 61.44c10.24 10.24 30.72 10.24 40.96-5.12l107.52-102.4c15.36 10.24 30.72 15.36 51.2 15.36 51.2 0 97.28-40.96 97.28-97.28s-51.2-97.28-102.4-97.28z m0 138.24c-10.24 0-20.48-5.12-30.72-10.24-5.12-5.12-10.24-15.36-10.24-30.72 0-20.48 15.36-40.96 40.96-40.96s40.96 20.48 40.96 40.96-15.36 40.96-40.96 40.96z" p-id="5449"></path><path d="M778.24 102.4h-71.68c-20.48 0-35.84 15.36-35.84 35.84 0 20.48 15.36 35.84 35.84 35.84h71.68c25.6 0 40.96 5.12 56.32 20.48s20.48 30.72 20.48 56.32v522.24c0 25.6-5.12 40.96-20.48 56.32s-30.72 30.72-56.32 30.72h-537.6c-25.6 0-40.96-15.36-56.32-30.72s-20.48-30.72-20.48-56.32V250.88c0-25.6 5.12-40.96 20.48-56.32s30.72-20.48 56.32-20.48h71.68c20.48 0 35.84-15.36 35.84-35.84 0-20.48-15.36-35.84-35.84-35.84h-71.68c-87.04 0-138.24 61.44-138.24 148.48v522.24c0 87.04 51.2 148.48 138.24 148.48h537.6c87.04 0 143.36-61.44 143.36-148.48V250.88c0-87.04-56.32-148.48-143.36-148.48z" p-id="5450"></path><path d="M747.52 742.4H296.96c-25.6 0-35.84 10.24-35.84 30.72 0 15.36 10.24 30.72 35.84 30.72h450.56c20.48 0 35.84-10.24 35.84-30.72S768 742.4 747.52 742.4z" p-id="5451"></path></svg>