<?xml version="1.0" standalone="no"?><!DOCTYPE svg PUBLIC "-//W3C//DTD SVG 1.1//EN" "http://www.w3.org/Graphics/SVG/1.1/DTD/svg11.dtd"><svg t="1598066358779" class="icon" viewBox="0 0 1024 1024" version="1.1" xmlns="http://www.w3.org/2000/svg" p-id="5295" xmlns:xlink="http://www.w3.org/1999/xlink" width="200" height="200"><defs><style type="text/css"></style></defs><path d="M608.056445 181.347633c11.343258 0 70.154801-107.291329 83.159811-124.270091 4.479503-5.924504 5.418754-7.225005 1.950752-11.487759s-11.126508-3.179002-19.579765-0.7225c-15.822762 4.624003-35.330276 0-57.294292-6.213505-44.072532-12.788259-107.652579-30.489522-133.229097 15.967262-2.456502 4.479503-0.794751 1.156001 4.190503 6.574755 13.36626 14.883511 69.865801 120.151838 81.353559 120.151838z" fill="#A3D4FF" p-id="5296"></path><path d="M608.056445 198.037395H568.607916c-14.450011 0-23.047767-10.765258-66.253298-82.36506-10.404008-17.195513-23.264517-38.509278-27.45502-43.350032a17.412263 17.412263 0 0 1-8.814507-10.259508 18.785014 18.785014 0 0 1 2.239752-15.461511c32.368024-58.667043 107.580329-36.992027 152.519862-23.987017 16.834262 4.840754 36.125026 9.753757 48.046285 6.213504 7.225005-2.095252 26.010019-7.225005 37.208777 6.285755s2.673252 26.371269-1.661751 32.079023-13.29401 20.808015-23.409017 37.714528c-48.624286 80.920059-58.161293 93.130318-72.972554 93.130318z m-34.246525-33.307274h28.900021c10.259508-11.487758 35.547026-53.537289 49.563537-76.946307 5.996754-9.970507 10.982008-18.207013 15.028011-24.781768a149.77436 149.77436 0 0 1-55.777041-8.308756c-45.228533-13.07726-87.494814-22.686517-108.375079 0 5.924504 8.092006 14.450011 22.180766 27.52727 43.711282a726.980032 726.980032 0 0 0 43.133281 66.253299z" fill="#2A5082" p-id="5297"></path><path d="M516.515628 617.665702m-395.93029 0a395.93029 395.93029 0 1 0 791.86058 0 395.93029 395.93029 0 1 0-791.86058 0Z" fill="#E9EAEB" p-id="5298"></path><path d="M144.861356 181.347633h33.307274v99.994073h-33.307274z" fill="#BCC0C4" p-id="5299"></path><path d="M111.554082 214.654907h99.994073v33.307275H111.554082zM311.542228 64.663797h33.307275v99.994074h-33.307275z" fill="#BCC0C4" p-id="5300"></path><path d="M278.234954 98.043322h99.994073v33.307274H278.234954z" fill="#BCC0C4" p-id="5301"></path><path d="M344.054752 459.076836z m495.057363-72.250053c-14.450011-60.328794-44.000282-123.54759-177.662881-204.539899a139.370352 139.370352 0 0 0-126.798842-5.780005c-137.275101 73.406054-167.692373 149.55761-181.781134 209.958654a326.859239 326.859239 0 0 0-8.742256 72.250053c0 141.321104 112.132082 255.909687 250.346433 255.909687S844.819869 599.675439 844.819869 458.571086a344.271502 344.271502 0 0 0-5.635504-72.105553z" fill="#A3D4FF" p-id="5302"></path><path d="M594.473435 731.315036c-146.956608 0-266.602695-121.958089-267.325195-271.9492v-0.79475A345.066253 345.066253 0 0 1 336.612997 382.92528c15.750512-67.409299 50.575037-146.306357 190.017639-220.868411 34.463275-18.423763 96.453821-22.686517 143.488605 5.852254C800.675086 246.733931 838.606364 310.675228 855.368376 382.92528a356.987511 356.987511 0 0 1 6.141255 75.934806c0 150.13561-119.790588 272.45495-267.036196 272.45495zM360.744514 458.715586c0 131.928597 104.907077 239.219925 233.728921 239.219925s233.728921-107.363579 233.728922-239.364425a316.816482 316.816482 0 0 0-5.274254-68.4208c-11.993509-51.297538-36.125026-112.854583-170.004375-194.063642a122.24709 122.24709 0 0 0-110.470331-4.913004c-127.376843 68.1318-158.588866 135.90235-173.400127 198.976646a310.675228 310.675228 0 0 0-8.308756 68.49305z" fill="#2A5082" p-id="5303"></path><path d="M824.373104 570.052918l-98.043322 46.529034-5.346504 2.023001a38.726028 38.726028 0 0 0-35.258026-20.591265H585.731179c-22.903267 0-57.800042-33.307274-85.399563-33.307274H402.360545c-40.243279 0-76.296056 32.946024-96.526071 51.875538-31.356523 31.356523-93.925069 94.575319-93.925069 94.575319l153.170112 153.386862c25.070768-25.070768 54.54879-49.852537 80.125309-49.852536h199.626896a117.839836 117.839836 0 0 0 84.315812-31.645523l166.175122-166.175122 47.107034-117.839836c-28.972271-28.466521-94.503069 2.239752-118.056586 71.021802z" fill="#FFFFFF" p-id="5304"></path><path d="M364.718267 888.0254L187.850138 711.157271l11.704508-11.776759S262.701192 635.800466 294.057715 604.732943c21.675016-20.085515 60.906795-56.716292 108.37508-56.716292h97.898821c18.785014 0 36.992027 10.115007 54.62104 19.941015 11.343258 6.285755 24.131518 13.43851 30.706273 13.43851h100.066323a55.704791 55.704791 0 0 1 40.74903 16.689762l84.604812-40.098779c16.834262-42.916531 50.575037-75.573555 86.700064-84.026812a58.594793 58.594793 0 0 1 55.921541 13.58301l7.803005 7.803006-52.453538 131.206096L740.996543 794.750582a133.951598 133.951598 0 0 1-96.092571 36.558527H444.843576c-15.533761 0-38.509278 15.100261-68.34855 44.939533zM235.101672 711.085021l130.050095 130.050095c23.553517-21.675016 51.947788-43.350032 79.908559-43.350032h199.771396a101.150074 101.150074 0 0 0 72.250053-26.804769l163.42962-163.42962L921.549425 505.75037a34.246525 34.246525 0 0 0-16.111762 0c-22.542017 5.202004-51.442038 28.900021-65.025047 69.071051l-2.239752 6.647005-95.51457 45.300783a85.544063 85.544063 0 0 1 2.528752 20.952515c0 39.159529-24.348268 66.325549-59.172794 66.325549H511.530375V681.317999h174.122627c23.987018 0 25.865519-24.998518 25.865519-32.729274 0-5.924504-1.228251-33.957525-25.865519-33.957525H585.731179c-15.244761 0-30.634022-8.525506-46.962534-17.629013-13.29401-7.225005-28.322021-15.750512-38.437029-15.750511H402.360545c-34.318775 0-67.409299 30.850773-85.182813 47.396034z" fill="#2A5082" p-id="5305"></path><path d="M94.864319 764.600635L194.843943 664.628237l216.670683 216.670683-99.979623 99.979624z" fill="#A3D4FF" p-id="5306"></path><path d="M311.542228 1004.853736L71.310802 764.62231 195.075143 641.07472 435.089819 881.450646zM118.490087 764.62231l193.052141 193.052141L387.982784 881.450646 195.075143 688.254004z" fill="#2A5082" p-id="5307"></path><path d="M183.074409 759.759881l23.553517-23.553517 33.307275 33.307275-23.553518 23.553517zM611.524448 498.019615H578.000423A50.069287 50.069287 0 0 1 528.220137 447.950328h33.307274A16.689762 16.689762 0 0 0 578.000423 464.64009h33.307275A16.689762 16.689762 0 0 0 628.21421 447.950328v-9.248007a16.617512 16.617512 0 0 0-11.415508-15.822761L562.394412 404.600296a49.924787 49.924787 0 0 1-34.174275-47.396034v-9.175757A50.069287 50.069287 0 0 1 578.000423 298.031468h33.307275a50.069287 50.069287 0 0 1 49.997036 49.997037h-33.090524a16.689762 16.689762 0 0 0-16.689762-16.689762H578.000423a16.689762 16.689762 0 0 0-16.689762 16.689762v9.320257a16.617512 16.617512 0 0 0 11.415508 15.822761l54.40429 18.134764a49.924787 49.924787 0 0 1 34.174275 47.396034V447.950328a50.069287 50.069287 0 0 1-49.780286 50.069287z" fill="#2A5082" p-id="5308"></path><path d="M578.217173 264.651944h33.307275v49.997036h-33.307275zM578.217173 481.329853h33.307275v49.997036h-33.307275z" fill="#2A5082" p-id="5309"></path></svg>