<?xml version="1.0" standalone="no"?><!DOCTYPE svg PUBLIC "-//W3C//DTD SVG 1.1//EN" "http://www.w3.org/Graphics/SVG/1.1/DTD/svg11.dtd"><svg t="1603606418519" class="icon" viewBox="0 0 1024 1024" version="1.1" xmlns="http://www.w3.org/2000/svg" p-id="6267" xmlns:xlink="http://www.w3.org/1999/xlink" width="200" height="200"><defs><style type="text/css"></style></defs><path d="M512 64c249.6 0 448 198.4 448 448s-198.4 448-448 448-448-198.4-448-448 198.4-448 448-448z m0 64C300.8 128 128 300.8 128 512s172.8 384 384 384 384-172.8 384-384-172.8-384-384-384z" fill="#333333" p-id="6268"></path><path d="M320 460.8c0 19.2 12.8 32 25.6 32h332.8c12.8 0 19.2-6.4 25.6-19.2 6.4-12.8 0-25.6-6.4-38.4L608 326.4c-6.4-6.4-25.6-6.4-38.4 0s-12.8 32 0 44.8l38.4 51.2H345.6c-12.8 0-25.6 19.2-25.6 38.4z m384 102.4c0-19.2-12.8-32-25.6-32H345.6c-12.8 0-19.2 12.8-25.6 19.2 0 12.8 0 32 6.4 38.4l83.2 102.4c6.4 12.8 12.8 12.8 25.6 12.8s12.8-6.4 19.2-6.4c12.8-12.8 12.8-32 0-44.8l-44.8-51.2h268.8c12.8 0 25.6-19.2 25.6-38.4z" fill="#333333" p-id="6269"></path></svg>